<svg width="512" height="527" viewBox="0 0 512 527" fill="none" xmlns="http://www.w3.org/2000/svg">
<circle cx="262" cy="277" r="245" fill="#242526" stroke="#25C2A0" stroke-width="10"/>
<path fill-rule="evenodd" clip-rule="evenodd" d="M170.448 184.473C179.924 174.97 195.144 174.531 205.153 183.154L169.132 219.277C160.539 209.245 160.977 193.975 170.447 184.474L170.448 184.473ZM318.043 199.27C303.3 214.06 243.131 281.394 224.533 302.247L251.679 329.469C272.475 310.819 339.62 250.48 354.367 235.696C375.989 214.014 339.669 177.595 318.05 199.277L318.043 199.27ZM205.272 322.216C175.787 325.378 183.245 361.139 166.813 372.387C166.813 372.387 225.01 392.486 231.758 348.779L205.272 322.216ZM211.106 316.366L219.022 308.428L245.51 334.991L237.594 342.929L211.106 316.366ZM211.035 188.952L230.317 208.287L194.191 244.515L174.91 225.179L211.035 188.952ZM236.15 214.138L265.783 243.848L263.514 246.363C252.833 258.212 242.177 270.082 231.546 281.974L200.024 250.364L236.15 214.136L236.15 214.138ZM309.902 288.097L354.884 333.205L359.1 373.66L318.759 369.432L271.888 322.429C283.749 311.763 295.585 301.077 307.399 290.371L309.907 288.096L309.902 288.097Z" fill="#25C2A0"/>
</svg>
