<svg width="363" height="76" viewBox="0 0 363 76" fill="none" xmlns="http://www.w3.org/2000/svg">
<path d="M83.2255 74.9886H57V1.01141H83.4422C90.8836 1.01141 97.2895 2.4924 102.66 5.45438C108.03 8.39227 112.16 12.6185 115.05 18.1331C117.964 23.6477 119.421 30.2459 119.421 37.9278C119.421 45.6337 117.964 52.256 115.05 57.7947C112.16 63.3333 108.006 67.5837 102.588 70.5456C97.1931 73.5076 90.7391 74.9886 83.2255 74.9886ZM72.6414 61.5875H82.5753C87.199 61.5875 91.0883 60.7687 94.2431 59.1312C97.4219 57.4696 99.806 54.9049 101.395 51.4373C103.009 47.9455 103.816 43.4423 103.816 37.9278C103.816 32.4613 103.009 27.9943 101.395 24.5266C99.806 21.0589 97.434 18.5063 94.2792 16.8688C91.1244 15.2313 87.2352 14.4125 82.6114 14.4125H72.6414V61.5875Z" fill="#25C2A0"/>
<path d="M196.282 26.9106H180.46C180.171 24.8638 179.581 23.0456 178.69 21.4563C177.799 19.8428 176.655 18.4702 175.258 17.3384C173.862 16.2066 172.248 15.3397 170.418 14.7376C168.612 14.1356 166.649 13.8346 164.53 13.8346C160.701 13.8346 157.365 14.7858 154.524 16.6882C151.682 18.5665 149.479 21.3118 147.913 24.924C146.348 28.512 145.565 32.8707 145.565 38C145.565 43.2738 146.348 47.7047 147.913 51.2928C149.503 54.8809 151.718 57.59 154.56 59.4202C157.402 61.2503 160.689 62.1654 164.421 62.1654C166.517 62.1654 168.455 61.8885 170.237 61.3346C172.043 60.7807 173.645 59.974 175.042 58.9145C176.439 57.8308 177.594 56.5184 178.51 54.9772C179.449 53.436 180.099 51.6781 180.46 49.7034L196.282 49.7757C195.873 53.1711 194.849 56.4461 193.212 59.6008C191.598 62.7313 189.419 65.5368 186.673 68.0171C183.952 70.4734 180.701 72.424 176.92 73.8688C173.163 75.2896 168.913 76 164.169 76C157.57 76 151.67 74.507 146.468 71.5209C141.291 68.5349 137.197 64.2123 134.186 58.5532C131.2 52.8942 129.707 46.0431 129.707 38C129.707 29.9328 131.224 23.0697 134.259 17.4107C137.293 11.7516 141.411 7.44107 146.613 4.47909C151.814 1.49303 157.666 0 164.169 0C168.455 0 172.429 0.602028 176.089 1.80608C179.774 3.01014 183.037 4.76806 185.879 7.07985C188.72 9.36755 191.032 12.173 192.814 15.4962C194.621 18.8194 195.776 22.6242 196.282 26.9106Z" fill="#25C2A0"/>
<path d="M207.498 1.01141H226.788L247.162 50.7148H248.029L268.402 1.01141H287.692V74.9886H272.52V26.8384H271.906L252.761 74.6274H242.43L223.284 26.6578H222.67V74.9886H207.498V1.01141Z" fill="#25C2A0"/>
<path d="M326.805 74.9886H300.579V1.01141H327.021C334.463 1.01141 340.868 2.4924 346.239 5.45438C351.609 8.39227 355.739 12.6185 358.629 18.1331C361.543 23.6477 363 30.2459 363 37.9278C363 45.6337 361.543 52.256 358.629 57.7947C355.739 63.3333 351.585 67.5837 346.167 70.5456C340.772 73.5076 334.318 74.9886 326.805 74.9886ZM316.22 61.5875H326.154C330.778 61.5875 334.667 60.7687 337.822 59.1312C341.001 57.4696 343.385 54.9049 344.974 51.4373C346.588 47.9455 347.395 43.4423 347.395 37.9278C347.395 32.4613 346.588 27.9943 344.974 24.5266C343.385 21.0589 341.013 18.5063 337.858 16.8688C334.703 15.2313 330.814 14.4125 326.19 14.4125H316.22V61.5875Z" fill="#25C2A0"/>
<path d="M38 1H55V18H38V1Z" fill="#25C2A0"/>
<path d="M38 20H55V37H38V20Z" fill="#25C2A0"/>
<path d="M38 58H55V75H38V58Z" fill="#25C2A0"/>
<path d="M38 39H55V56H38V39Z" fill="#25C2A0"/>
<path d="M19 20H36V37H19V20Z" fill="#25C2A0"/>
<path d="M0 39H17V56H0V39Z" fill="#25C2A0"/>
<path d="M19 39H36V56H19V39Z" fill="#25C2A0"/>
</svg>
