<svg width="500" height="500" viewBox="0 0 500 500" fill="none" xmlns="http://www.w3.org/2000/svg">
<path d="M250 495C385.31 495 495 385.31 495 250C495 114.69 385.31 5 250 5C114.69 5 5 114.69 5 250C5 385.31 114.69 495 250 495Z" fill="#242526" stroke="#25C2A0" stroke-width="10"/>
<path d="M87.6889 275.721C85.8991 275.721 84.3662 275.091 83.0902 273.832C81.8307 272.572 81.2093 271.048 81.2259 269.258C81.2093 267.501 81.8307 266.001 83.0902 264.759C84.3662 263.499 85.8991 262.869 87.6889 262.869C89.3793 262.869 90.8707 263.499 92.1634 264.759C93.4725 266.001 94.1354 267.501 94.152 269.258C94.1354 270.451 93.8205 271.536 93.2074 272.514C92.6108 273.492 91.8236 274.271 90.8459 274.851C89.8847 275.431 88.8324 275.721 87.6889 275.721ZM116.126 275.547C113.309 275.547 110.749 274.818 108.445 273.359C106.142 271.901 104.302 269.714 102.927 266.797C101.551 263.88 100.864 260.259 100.864 255.934C100.864 251.443 101.576 247.747 103.001 244.847C104.427 241.947 106.291 239.801 108.594 238.409C110.915 237.017 113.409 236.321 116.077 236.321C118.082 236.321 119.797 236.669 121.222 237.365C122.647 238.045 123.824 238.923 124.752 240C125.68 241.077 126.384 242.196 126.865 243.356H127.114V224.091H139.269V275H127.238V268.81H126.865C126.351 269.987 125.622 271.089 124.678 272.116C123.733 273.144 122.548 273.973 121.123 274.602C119.714 275.232 118.049 275.547 116.126 275.547ZM120.352 266.076C121.827 266.076 123.087 265.662 124.131 264.833C125.175 263.988 125.978 262.803 126.542 261.278C127.105 259.754 127.387 257.964 127.387 255.909C127.387 253.821 127.105 252.023 126.542 250.515C125.995 249.007 125.191 247.847 124.131 247.035C123.087 246.223 121.827 245.817 120.352 245.817C118.844 245.817 117.568 246.231 116.524 247.06C115.48 247.888 114.685 249.057 114.138 250.565C113.607 252.073 113.342 253.854 113.342 255.909C113.342 257.964 113.616 259.754 114.163 261.278C114.71 262.803 115.497 263.988 116.524 264.833C117.568 265.662 118.844 266.076 120.352 266.076ZM164.805 275.721C160.811 275.721 157.364 274.934 154.464 273.359C151.58 271.768 149.359 269.506 147.802 266.573C146.26 263.623 145.49 260.118 145.49 256.058C145.49 252.114 146.269 248.667 147.827 245.717C149.384 242.751 151.58 240.447 154.414 238.807C157.248 237.15 160.587 236.321 164.432 236.321C167.149 236.321 169.635 236.744 171.889 237.589C174.143 238.434 176.09 239.685 177.731 241.342C179.371 243 180.647 245.046 181.559 247.482C182.47 249.902 182.926 252.678 182.926 255.81V258.842H149.741V251.783H171.616C171.599 250.49 171.292 249.338 170.696 248.327C170.099 247.317 169.279 246.529 168.235 245.966C167.207 245.386 166.023 245.096 164.68 245.096C163.321 245.096 162.103 245.402 161.026 246.016C159.949 246.612 159.095 247.433 158.466 248.477C157.836 249.504 157.505 250.672 157.471 251.982V259.165C157.471 260.723 157.778 262.09 158.391 263.267C159.004 264.427 159.874 265.33 161.001 265.977C162.128 266.623 163.47 266.946 165.028 266.946C166.105 266.946 167.083 266.797 167.961 266.499C168.84 266.2 169.594 265.761 170.224 265.181C170.853 264.601 171.326 263.888 171.64 263.043L182.802 263.366C182.338 265.869 181.318 268.048 179.744 269.904C178.186 271.744 176.14 273.177 173.604 274.205C171.069 275.215 168.135 275.721 164.805 275.721ZM225.147 236.818L212.047 275H198.127L185.051 236.818H197.853L204.888 263.118H205.286L212.345 236.818H225.147ZM234.251 275.721C232.462 275.721 230.929 275.091 229.653 273.832C228.393 272.572 227.772 271.048 227.788 269.258C227.772 267.501 228.393 266.001 229.653 264.759C230.929 263.499 232.462 262.869 234.251 262.869C235.942 262.869 237.433 263.499 238.726 264.759C240.035 266.001 240.698 267.501 240.714 269.258C240.698 270.451 240.383 271.536 239.77 272.514C239.173 273.492 238.386 274.271 237.408 274.851C236.447 275.431 235.395 275.721 234.251 275.721ZM260.899 224.091V275H248.744V224.091H260.899ZM286.459 275.721C282.449 275.721 279.002 274.901 276.118 273.26C273.251 271.603 271.039 269.299 269.481 266.349C267.94 263.383 267.17 259.944 267.17 256.033C267.17 252.106 267.94 248.667 269.481 245.717C271.039 242.751 273.251 240.447 276.118 238.807C279.002 237.15 282.449 236.321 286.459 236.321C290.47 236.321 293.908 237.15 296.775 238.807C299.659 240.447 301.871 242.751 303.412 245.717C304.97 248.667 305.749 252.106 305.749 256.033C305.749 259.944 304.97 263.383 303.412 266.349C301.871 269.299 299.659 271.603 296.775 273.26C293.908 274.901 290.47 275.721 286.459 275.721ZM286.534 266.548C287.992 266.548 289.227 266.101 290.238 265.206C291.249 264.311 292.019 263.068 292.55 261.477C293.096 259.886 293.37 258.047 293.37 255.959C293.37 253.838 293.096 251.982 292.55 250.391C292.019 248.8 291.249 247.557 290.238 246.662C289.227 245.767 287.992 245.32 286.534 245.32C285.026 245.32 283.75 245.767 282.706 246.662C281.678 247.557 280.891 248.8 280.344 250.391C279.814 251.982 279.549 253.838 279.549 255.959C279.549 258.047 279.814 259.886 280.344 261.477C280.891 263.068 281.678 264.311 282.706 265.206C283.75 266.101 285.026 266.548 286.534 266.548ZM329.799 275.721C325.772 275.721 322.317 274.892 319.433 273.235C316.566 271.578 314.362 269.274 312.821 266.325C311.28 263.358 310.509 259.928 310.509 256.033C310.509 252.122 311.28 248.692 312.821 245.742C314.379 242.776 316.591 240.464 319.458 238.807C322.342 237.15 325.78 236.321 329.774 236.321C333.304 236.321 336.378 236.959 338.997 238.235C341.632 239.511 343.686 241.317 345.161 243.654C346.653 245.974 347.44 248.7 347.523 251.832H336.163C335.931 249.877 335.268 248.344 334.174 247.234C333.097 246.123 331.688 245.568 329.948 245.568C328.54 245.568 327.305 245.966 326.244 246.761C325.184 247.54 324.355 248.7 323.759 250.241C323.179 251.766 322.889 253.655 322.889 255.909C322.889 258.163 323.179 260.069 323.759 261.626C324.355 263.168 325.184 264.336 326.244 265.131C327.305 265.91 328.54 266.3 329.948 266.3C331.075 266.3 332.07 266.059 332.931 265.579C333.81 265.098 334.53 264.394 335.094 263.466C335.657 262.521 336.014 261.378 336.163 260.036H347.523C347.407 263.184 346.62 265.935 345.161 268.288C343.72 270.642 341.69 272.473 339.071 273.782C336.469 275.075 333.379 275.721 329.799 275.721ZM364.507 275.646C362.071 275.646 359.908 275.24 358.019 274.428C356.147 273.6 354.663 272.357 353.57 270.7C352.492 269.026 351.954 266.929 351.954 264.411C351.954 262.289 352.327 260.5 353.072 259.041C353.818 257.583 354.846 256.398 356.155 255.487C357.464 254.575 358.972 253.887 360.679 253.423C362.386 252.943 364.209 252.62 366.148 252.454C368.319 252.255 370.067 252.048 371.393 251.832C372.719 251.6 373.68 251.277 374.276 250.863C374.889 250.432 375.196 249.827 375.196 249.048V248.924C375.196 247.648 374.757 246.662 373.879 245.966C373 245.27 371.815 244.922 370.324 244.922C368.716 244.922 367.424 245.27 366.446 245.966C365.468 246.662 364.847 247.623 364.582 248.849L353.371 248.452C353.702 246.132 354.556 244.06 355.931 242.237C357.323 240.398 359.229 238.956 361.648 237.912C364.085 236.851 367.009 236.321 370.423 236.321C372.859 236.321 375.105 236.611 377.16 237.191C379.215 237.754 381.004 238.583 382.529 239.677C384.054 240.754 385.23 242.08 386.059 243.654C386.904 245.228 387.327 247.027 387.327 249.048V275H375.892V269.68H375.594C374.914 270.973 374.044 272.067 372.984 272.962C371.94 273.857 370.705 274.528 369.28 274.975C367.871 275.423 366.28 275.646 364.507 275.646ZM368.261 267.692C369.57 267.692 370.746 267.427 371.79 266.896C372.851 266.366 373.696 265.637 374.326 264.709C374.956 263.764 375.271 262.67 375.271 261.428V257.798C374.923 257.981 374.5 258.146 374.003 258.295C373.522 258.445 372.992 258.585 372.412 258.718C371.832 258.851 371.235 258.967 370.622 259.066C370.009 259.165 369.421 259.257 368.857 259.339C367.714 259.522 366.736 259.804 365.924 260.185C365.129 260.566 364.515 261.063 364.085 261.676C363.67 262.273 363.463 262.985 363.463 263.814C363.463 265.073 363.911 266.035 364.805 266.697C365.717 267.36 366.869 267.692 368.261 267.692ZM406.915 224.091V275H394.759V224.091H406.915Z" fill="#25C2A0"/>
</svg>
