<svg width="500" height="500" viewBox="0 0 500 500" fill="none" xmlns="http://www.w3.org/2000/svg">
<g clip-path="url(#clip0_2505_15621)">
<path d="M250 495C385.31 495 495 385.31 495 250C495 114.69 385.31 5 250 5C114.69 5 5 114.69 5 250C5 385.31 114.69 495 250 495Z" fill="#242526" stroke="#25C2A0" stroke-width="10"/>
<path d="M243.163 158.002C292.738 158.002 333.173 197.09 335.236 246.067C330.002 241.808 324.023 238.425 317.523 236.146C316.923 232.906 316.109 229.74 315.108 226.662H289.122C289.41 228.87 289.654 231.112 289.861 233.387C284.162 234.169 278.721 235.763 273.66 238.049C273.389 234.144 272.989 230.343 272.463 226.662H213.867C212.822 234.017 212.263 241.852 212.263 250.001C212.263 258.148 212.823 265.983 213.867 273.341H241.917C240.204 278.558 239.197 284.101 239.02 289.847H217.218C220.329 301.319 229.511 325.496 243.164 325.496C245.114 325.496 246.966 324.998 248.728 324.125C252.748 330.186 257.856 335.471 263.779 339.69C257.15 341.2 250.251 342 243.164 342C192.268 342 151 300.807 151 250.002C151 199.198 192.268 158 243.164 158L243.163 158.002ZM269.174 308.783L315.075 262.959C310.069 259.983 304.224 258.276 297.972 258.276C279.472 258.276 264.478 273.239 264.478 291.706C264.478 297.946 266.191 303.783 269.173 308.781L269.174 308.783ZM326.769 274.634L280.863 320.45C285.869 323.426 291.72 325.137 297.973 325.137C316.471 325.137 331.46 310.174 331.46 291.708C331.46 285.468 329.75 279.63 326.769 274.636V274.634ZM297.973 241.769C325.599 241.769 348 264.127 348 291.706C348 319.282 325.598 341.643 297.973 341.643C270.347 341.643 247.945 319.282 247.945 291.706C247.945 264.128 270.347 241.769 297.973 241.769ZM171.22 273.34H197.207C196.24 265.883 195.724 258.058 195.724 250C195.724 241.938 196.24 234.114 197.207 226.661H171.223C168.827 234.012 167.532 241.855 167.532 250C167.532 258.147 168.827 265.992 171.219 273.34H171.22ZM200.215 289.846H178.916C186.596 302.164 197.708 312.068 210.859 318.275C205.93 309.475 202.552 299.618 200.214 289.846H200.215ZM178.916 210.157H200.215C202.546 200.388 205.931 190.508 210.86 181.72C197.709 187.923 186.597 197.834 178.916 210.157H178.916ZM217.216 210.157H269.108C266 198.681 256.815 174.506 243.162 174.506C229.509 174.506 220.326 198.682 217.216 210.157ZM286.11 210.157H307.409C299.726 197.832 288.617 187.931 275.466 181.72C280.395 190.518 283.773 200.381 286.111 210.157H286.11Z" fill="#25C2A0"/>
</g>
<defs>
<clipPath id="clip0_2505_15621">
<rect width="500" height="500" fill="white"/>
</clipPath>
</defs>
</svg>
