<svg width="512" height="527" viewBox="0 0 512 527" fill="none" xmlns="http://www.w3.org/2000/svg">
<path d="M262 522C397.31 522 507 412.31 507 277C507 141.69 397.31 32 262 32C126.69 32 17 141.69 17 277C17 412.31 126.69 522 262 522Z" fill="white" stroke="#25C2A0" stroke-width="10"/>
<path d="M286.868 257.614C252.065 286.677 220.957 314.186 212.253 361C246.077 337.554 290.829 331.995 314.54 303.645C339.011 274.398 334.67 233.946 336 193C307.528 206.434 279.323 213.881 250.465 220.466C195.237 233.072 171.873 292.766 199.884 348.248C230.916 292.51 253.429 268.251 286.867 257.614H286.868Z" fill="#25C2A0"/>
</svg>
