<svg width="512" height="527" viewBox="0 0 512 527" fill="none" xmlns="http://www.w3.org/2000/svg">
<path d="M262 522C397.31 522 507 412.31 507 277C507 141.69 397.31 32 262 32C126.69 32 17 141.69 17 277C17 412.31 126.69 522 262 522Z" fill="white" stroke="#25C2A0" stroke-width="10"/>
<path d="M225.572 238.369C221.637 236.813 218.401 234.346 218.629 229.648C218.857 224.95 215.15 221.837 215.15 221.837C215.15 221.837 218.386 211.545 215.378 203.044C212.37 194.528 202.419 180.903 194.792 170.611C187.166 160.318 193.638 148.455 186.71 133.259C179.752 118.063 161.718 118.944 151.995 125.434C142.272 131.908 145.28 148.015 145.736 155.62C146.207 163.211 145.949 168.629 145.052 170.596C144.141 172.563 137.882 179.772 133.704 185.807C129.541 191.841 126.533 204.365 123.51 209.519C120.502 214.657 122.583 219.356 122.583 219.356C122.583 219.356 120.502 220.016 118.876 223.393C117.25 226.741 114.015 228.297 108.226 229.413C102.438 230.529 102.438 234.126 103.82 238.149C105.218 242.172 103.82 244.418 102.21 249.542C100.584 254.666 108.682 256.252 116.552 257.133C124.421 258.043 133.218 262.962 140.632 263.843C148.03 264.738 150.339 258.924 150.339 258.924C150.339 258.924 158.665 257.118 167.461 256.913C176.258 256.692 184.583 258.704 184.583 258.704C184.583 258.704 186.209 262.286 189.217 263.843C192.225 265.414 198.712 265.634 202.875 261.391C207.052 257.133 218.158 251.774 224.402 248.412C230.661 245.064 229.507 239.925 225.572 238.369ZM171.426 139.749C175.392 139.749 178.597 143.551 178.597 148.235C178.597 151.568 176.987 154.431 174.647 155.826C174.055 155.576 173.417 155.312 172.748 155.033C174.161 154.357 175.164 152.625 175.164 150.584C175.164 147.941 173.477 145.798 171.381 145.798C169.315 145.798 167.613 147.941 167.613 150.584C167.613 151.568 167.856 152.508 168.266 153.271C167.036 152.801 165.896 152.361 165 152.023C164.514 150.878 164.24 149.586 164.24 148.22C164.24 143.551 167.446 139.749 171.426 139.749ZM170.91 157.646C172.9 158.307 175.103 159.555 174.875 160.788C174.647 162.036 173.599 162.036 170.91 163.622C168.221 165.193 162.402 168.687 160.533 168.908C158.665 169.128 157.617 168.115 155.626 166.881C153.636 165.633 149.914 162.697 150.856 161.126C150.856 161.126 153.758 158.982 155.034 157.852C156.325 156.721 159.592 154.02 161.567 154.372C163.557 154.71 168.92 156.971 170.91 157.646ZM153.013 141.085C156.143 141.085 158.68 144.682 158.68 149.131C158.68 149.953 158.604 150.702 158.437 151.436C157.677 151.685 156.903 152.096 156.143 152.713C155.763 153.021 155.429 153.3 155.095 153.579C155.596 152.684 155.793 151.406 155.566 150.056C155.14 147.633 153.469 145.856 151.813 146.106C150.157 146.385 149.154 148.558 149.58 151.01C150.005 153.447 151.676 155.224 153.317 154.959C153.408 154.945 153.499 154.915 153.591 154.886C152.785 155.635 152.041 156.281 151.281 156.824C148.987 155.796 147.316 152.742 147.316 149.131C147.362 144.682 149.899 141.085 153.013 141.085ZM146.906 254.094C146.162 257.294 142.287 259.629 142.287 259.629C138.763 260.701 128.979 256.59 124.543 254.798C120.107 253.022 108.834 252.464 107.345 250.878C105.871 249.263 108.089 245.681 108.652 242.304C109.199 238.898 107.543 236.769 108.089 234.434C108.652 232.114 115.853 232.114 118.618 230.514C121.398 228.899 121.945 224.259 124.163 223.011C126.381 221.749 130.437 226.212 132.109 228.738C133.765 231.219 140.054 241.952 142.637 244.638C145.25 247.296 147.65 250.878 146.906 254.094ZM187.834 222.923C187.166 226.08 187.166 237.473 187.166 237.473C187.166 237.473 179.995 247.076 168.874 248.647C157.768 250.218 152.208 249.087 152.208 249.087L145.964 242.172C145.964 242.172 150.81 241.496 150.127 236.798C149.428 232.1 135.314 225.61 132.777 219.796C130.24 213.997 132.321 204.145 135.557 199.212C138.793 194.293 140.859 183.575 144.111 179.978C147.347 176.41 149.884 168.805 148.729 165.443C148.729 165.443 155.672 173.503 160.518 172.167C165.38 170.816 176.273 162.991 177.868 164.341C179.478 165.692 193.364 195.203 194.747 204.6C196.144 213.982 193.82 221.147 193.82 221.147C193.82 221.147 188.518 219.796 187.834 222.923ZM223.354 243.992C221.197 245.916 209.164 250.599 205.564 254.27C201.978 257.896 197.299 260.862 194.428 259.996C191.541 259.115 189.034 255.298 190.295 249.733C191.541 244.183 192.635 238.105 192.453 234.625C192.27 231.145 191.541 226.447 192.453 225.757C193.349 225.082 194.777 225.419 194.777 225.419C194.777 225.419 194.078 232.012 198.195 233.759C202.328 235.477 208.253 233.069 210.061 231.307C211.868 229.574 213.129 226.976 213.129 226.976C213.129 226.976 214.922 227.857 214.74 230.632C214.557 233.407 215.986 237.415 218.705 238.795C221.379 240.175 225.511 242.098 223.354 243.992Z" fill="#21AF90"/>
<path d="M417.251 170.054C416.389 170.701 401.154 179.004 401.154 197.466C401.154 218.82 420.539 226.374 421.12 226.561C421.03 227.022 418.04 236.907 410.899 246.98C404.531 255.844 397.881 264.693 387.764 264.693C377.647 264.693 375.043 259.009 363.364 259.009C351.983 259.009 347.936 264.88 338.682 264.88C329.428 264.88 322.971 256.678 315.547 246.606C306.948 234.778 300 216.402 300 198.962C300 170.989 318.805 156.153 337.313 156.153C347.148 156.153 355.345 162.399 361.519 162.399C367.396 162.399 376.561 155.779 387.749 155.779C391.989 155.779 407.224 156.153 417.251 170.054ZM382.438 143.937C387.064 138.627 390.338 131.26 390.338 123.892C390.338 122.871 390.248 121.835 390.055 121C382.527 121.273 373.57 125.849 368.17 131.907C363.93 136.569 359.972 143.937 359.972 151.405C359.972 152.527 360.166 153.65 360.255 154.009C360.731 154.096 361.505 154.197 362.278 154.197C369.033 154.197 377.528 149.822 382.438 143.937Z" fill="#21AF90"/>
<path d="M200.663 327.199L252.818 320.344L252.841 368.9L200.711 369.186L200.663 327.199ZM252.793 374.494L252.834 423.092L200.704 416.175L200.701 374.168L252.793 374.494ZM259.115 319.447L328.269 309.706V368.282L259.115 368.812V319.447ZM328.285 374.951L328.269 433.264L259.115 423.844L259.019 374.843L328.285 374.951Z" fill="#21AF90"/>
</svg>
