<svg width="512" height="527" viewBox="0 0 512 527" fill="none" xmlns="http://www.w3.org/2000/svg">
<path d="M262 522C397.31 522 507 412.31 507 277C507 141.69 397.31 32 262 32C126.69 32 17 141.69 17 277C17 412.31 126.69 522 262 522Z" fill="white" stroke="#25C2A0" stroke-width="10"/>
<path d="M211.386 271.444H311.614V282.556H211.386V271.444ZM211.386 247H311.614V258.111H211.386V247ZM211.386 295.889H278.205V307H211.386V295.889ZM188 177V377H335V214.333L297.582 177H188ZM318.741 211.667H303.373V195.444L318.741 211.667Z" fill="#25C2A0"/>
</svg>
